<?xml version="1.0"?>
<svg xmlns="http://www.w3.org/2000/svg" xmlns:xlink="http://www.w3.org/1999/xlink" xmlns:svgjs="http://svgjs.com/svgjs" version="1.1" width="512" height="512" x="0" y="0" viewBox="0 0 512 512" style="enable-background:new 0 0 512 512" xml:space="preserve" class=""><g>
<path xmlns="http://www.w3.org/2000/svg" style="" d="M256.901,0H256C148.599,0,61,88.599,61,196c0,42.299,13.5,82.8,39,116.7l144,193.299  c2.701,3.9,7.202,6,12.001,6h0.901c4.499-0.3,8.699-2.401,11.1-6L412,312.7c25.499-33.9,39-74.401,39-116.7  C451,88.9,363.999,0.601,256.901,0z" fill="#e9dc2f" data-original="#00ddc1" class=""/>
<path xmlns="http://www.w3.org/2000/svg" style="" d="M451,196c0,42.299-13.5,82.8-39,116.7L268.001,506c-2.401,3.6-6.601,5.7-11.1,6V0  C363.999,0.601,451,88.9,451,196z" fill="#dbcf24" data-original="#00ccb2" class=""/>
<path xmlns="http://www.w3.org/2000/svg" style="" d="M256.901,61H256c-74.399,0-135,60.599-135,135c0,74.399,60.601,135,135,135h0.901  C331,330.399,391,270.099,391,196C391,121.899,331,61.601,256.901,61z" fill="#292929" data-original="#ececf1" class=""/>
<path xmlns="http://www.w3.org/2000/svg" style="" d="M391,196c0,74.099-60,134.399-134.099,135V61C331,61.601,391,121.899,391,196z" fill="#040404" data-original="#e2e2e7" class=""/>
<path xmlns="http://www.w3.org/2000/svg" style="" d="M271,121h-45c-8.401,0-15,6.599-15,15v120c0,8.399,6.599,15,15,15s15-6.601,15-15v-45h30  c24.901,0,45-20.101,45-45C316,141.099,295.901,121,271,121z M271,181h-30v-30h30c8.401,0,15,6.599,15,15  C286,174.399,279.401,181,271,181z" fill="#e9dc2f" data-original="#00ddc1" class=""/>
<path xmlns="http://www.w3.org/2000/svg" style="" d="M316,166c0,24.899-20.099,45-45,45h-14.099v-30H271c8.401,0,15-6.601,15-15c0-8.401-6.599-15-15-15  h-14.099v-30H271C295.901,121,316,141.099,316,166z" fill="#dbcf24" data-original="#00ccb2" class=""/>
<g xmlns="http://www.w3.org/2000/svg">
</g>
<g xmlns="http://www.w3.org/2000/svg">
</g>
<g xmlns="http://www.w3.org/2000/svg">
</g>
<g xmlns="http://www.w3.org/2000/svg">
</g>
<g xmlns="http://www.w3.org/2000/svg">
</g>
<g xmlns="http://www.w3.org/2000/svg">
</g>
<g xmlns="http://www.w3.org/2000/svg">
</g>
<g xmlns="http://www.w3.org/2000/svg">
</g>
<g xmlns="http://www.w3.org/2000/svg">
</g>
<g xmlns="http://www.w3.org/2000/svg">
</g>
<g xmlns="http://www.w3.org/2000/svg">
</g>
<g xmlns="http://www.w3.org/2000/svg">
</g>
<g xmlns="http://www.w3.org/2000/svg">
</g>
<g xmlns="http://www.w3.org/2000/svg">
</g>
<g xmlns="http://www.w3.org/2000/svg">
</g>
</g></svg>
