<?xml version="1.0"?>
<svg xmlns="http://www.w3.org/2000/svg" xmlns:xlink="http://www.w3.org/1999/xlink" xmlns:svgjs="http://svgjs.com/svgjs" version="1.1" width="512" height="512" x="0" y="0" viewBox="0 0 512 512" style="enable-background:new 0 0 512 512" xml:space="preserve" class=""><g><g xmlns="http://www.w3.org/2000/svg"><g><g><g><g><g><g><g><g><circle cx="256" cy="256" fill="#5a5a5a" r="256" data-original="#a65d4e" style="" class=""/></g></g></g></g></g></g></g></g><path d="m197.076 505.186c18.918 4.456 38.646 6.814 58.924 6.814 141.385 0 256-114.615 256-256 0-20.278-2.358-40.006-6.814-58.924l-67.394-67.394-363.584 252.636z" fill="#282828" data-original="#784132" style="" class=""/><g><path d="m74.209 129.682h363.583v252.636h-363.583z" fill="#ffffff" data-original="#ffffff" style="" class=""/></g><g><path d="m256.108 129.682h181.683v252.636h-181.683z" fill="#e9edf5" data-original="#e9edf5" style="" class=""/></g><g><path d="m361.599 302.962-240.554 37.134v-168.192h269.911z" fill="#898989" data-original="#bcdefa" style="" class=""/></g><g><path d="m256.108 171.904h134.847v129.755h-134.847z" fill="#6e6a6a" data-original="#92cbf7" style="" class=""/></g><g><path d="m74.209 129.682 46.836 42.222h269.911l46.836-42.222z" fill="#e9edf5" data-original="#e9edf5" style="" class=""/></g><g><path d="m437.792 129.682h-181.684v42.222h134.848z" fill="#cdd2e1" data-original="#cdd2e1" style="" class=""/></g><g><path d="m437.792 382.318-46.836-42.222h-269.911l-46.836 42.222z" fill="#e9edf5" data-original="#e9edf5" style="" class=""/></g><g><path d="m390.956 340.096h-134.848v42.222h181.684z" fill="#cdd2e1" data-original="#cdd2e1" style="" class=""/></g><g><path d="m121.045 340.096 88.735-102.944 52.22 51.472 78.096-71.984 50.86 51.788v71.668z" fill="#afafaf" data-original="#ffa426" style="" class=""/></g><g><path d="m390.956 268.428-50.86-51.788-78.096 71.984-5.892-5.807v57.279h134.848z" fill="#3a3a3a" data-original="#fe8205" style="" class=""/></g><g><circle cx="265.816" cy="220.361" fill="#3a3a3a" r="28.67" data-original="#fe8205" style="" class=""/></g><g><path d="m265.816 191.691c-3.408 0-6.676.598-9.708 1.689v53.961c3.032 1.091 6.3 1.689 9.708 1.689 15.834 0 28.67-12.836 28.67-28.67 0-15.833-12.836-28.669-28.67-28.669z" fill="#242323" data-original="#fa5d0f" style="" class=""/></g></g></g></svg>
